<svg width="64" height="64" viewBox="0 0 64 64" fill="none" xmlns="http://www.w3.org/2000/svg">
<g clip-path="url(#clip0_5_2)">
<path d="M36.146 0.534495C40.322 0.534495 43.86 1.0855 46.76 2.18749C49.66 3.2605 52.3425 4.812 54.8075 6.842L48.761 14.0195C47.05 12.5695 45.165 11.4675 43.106 10.7135C41.076 9.9595 38.901 9.5825 36.581 9.5825C33.797 9.5825 31.2305 10.322 28.8815 11.801C26.5615 13.28 24.691 15.658 23.27 18.935C21.878 22.183 21.182 26.475 21.182 31.811C21.182 37.06 21.849 41.3085 23.183 44.5565C24.546 47.8045 26.3875 50.1825 28.7075 51.6905C31.0565 53.1695 33.71 53.909 36.668 53.909C39.8 53.909 42.3955 53.358 44.4545 52.256C46.5135 51.154 48.3695 49.9505 50.0225 48.6455L55.634 55.736C53.517 57.824 50.8635 59.6075 47.6735 61.0865C44.5125 62.5655 40.67 63.305 36.146 63.305C30.897 63.305 26.2135 62.1015 22.0955 59.6945C17.9775 57.2875 14.744 53.7495 12.395 49.0805C10.046 44.4115 8.8715 38.655 8.8715 31.811C8.8715 25.083 10.075 19.399 12.482 14.759C14.918 10.09 18.195 6.552 22.313 4.145C26.46 1.738 31.071 0.534495 36.146 0.534495Z" fill="#5EEAD4"/>
</g>
<defs>
<clipPath id="clip0_5_2">
<rect width="64" height="64" fill="white"/>
</clipPath>
</defs>
</svg>
